<?xml version="1.0" encoding="UTF-8"?>
<svg id="Layer_2" data-name="Layer 2" xmlns="http://www.w3.org/2000/svg" viewBox="0 0 512.25 512.25">
  <defs>
    <style>
      .cls-1 {
        fill: #fff;
      }
    </style>
  </defs>
  <g id="Layer_1-2" data-name="Layer 1">
    <g>
      <rect width="512.25" height="512.25"/>
      <g>
        <path class="cls-1" d="M42.01,364.52l79.9-97.25-81.48-122.54h66.52l52.35,78.58,63.76-78.58h19.29l-74.39,91.83,85.02,127.96h-66.52l-55.89-84-69.67,84h-18.89ZM197.87,352.47h27.55L95.54,156.77h-27.16l129.49,195.71Z"/>
        <path class="cls-1" d="M382.86,367.53c-27.03,0-48.61-5.97-64.75-17.91-16.14-11.94-24.21-28.05-24.21-48.32v-156.56h56.68v206.24c9.45,3.01,20.2,4.52,32.28,4.52,22.56,0,40.28-4.86,53.14-14.6,12.85-9.73,19.29-22.93,19.29-39.59v-156.56h16.53v156.56c0,20.28-8.01,36.38-24.01,48.32-16.01,11.94-37.66,17.91-64.94,17.91ZM334.06,343.74v-186.97h-23.62v144.52c0,9.23,2.1,17.42,6.3,24.54,4.19,7.13,9.97,13.1,17.32,17.91Z"/>
      </g>
    </g>
  </g>
</svg>