<?xml version="1.0" encoding="UTF-8"?>
<svg id="Layer_2" data-name="Layer 2" xmlns="http://www.w3.org/2000/svg" viewBox="0 0 472 472">
  <defs>
    <style>
      .cls-1 {
        fill: none;
        stroke: #000;
        stroke-miterlimit: 10;
        stroke-width: 10px;
      }
    </style>
  </defs>
  <g id="Layer_1-2" data-name="Layer 1">
    <g>
      <path d="M236,376.67c-34.39,0-61.86-7.54-82.39-22.62-20.54-15.08-30.8-35.42-30.8-61.02V95.33h72.12v260.42c12.02,3.8,25.71,5.7,41.07,5.7,28.71,0,51.25-6.14,67.62-18.44,16.36-12.29,24.54-28.95,24.54-49.99V95.33h21.04v197.69c0,25.6-10.19,45.94-30.55,61.02-20.37,15.08-47.92,22.62-82.64,22.62ZM173.89,346.63V110.54h-30.05v182.49c0,11.66,2.67,21.99,8.01,30.98,5.34,9,12.69,16.54,22.04,22.62Z"/>
      <circle class="cls-1" cx="236" cy="236" r="231"/>
    </g>
  </g>
</svg>